<svg xmlns="http://www.w3.org/2000/svg" viewBox="0 0 48 48" width="48" height="48">
  <rect x="0" y="0" width="48" height="48" rx="12" fill="#0a0a0b" />
  <path
    d="M24 41.8c-1.1 0-2.2-.4-3.1-1.2C14.3 34.8 6.5 28.2 6.5 19.6 6.5 14 10.9 9.5 16.3 9.5c3.1 0 5.9 1.6 7.7 4.2 1.8-2.6 4.6-4.2 7.7-4.2 5.4 0 9.8 4.5 9.8 10.1 0 8.6-7.8 15.2-14.4 21-0.9 0.8-2 1.2-3.1 1.2Z"
    fill="#ef3340"
  />
  <path
    d="M24 41.8c-1.1 0-2.2-.4-3.1-1.2C14.3 34.8 6.5 28.2 6.5 19.6 6.5 14 10.9 9.5 16.3 9.5c3.1 0 5.9 1.6 7.7 4.2 1.8-2.6 4.6-4.2 7.7-4.2 5.4 0 9.8 4.5 9.8 10.1 0 8.6-7.8 15.2-14.4 21-0.9 0.8-2 1.2-3.1 1.2Z"
    fill="#fbfbfa"
    transform="translate(13.2 13.2) scale(0.45)"
  />
</svg>
